<svg width="96" height="96" viewBox="0 0 96 96" fill="none" xmlns="http://www.w3.org/2000/svg" role="img" aria-label="RetroOasis">
  <defs>
    <linearGradient id="punk-hot" x1="14" y1="16" x2="82" y2="82" gradientUnits="userSpaceOnUse">
      <stop stop-color="#f5ff4d"/>
      <stop offset="0.34" stop-color="#ff2e97"/>
      <stop offset="0.68" stop-color="#a855f7"/>
      <stop offset="1" stop-color="#00f0ff"/>
    </linearGradient>
    <filter id="punk-pop" x="-20%" y="-20%" width="140%" height="140%" color-interpolation-filters="sRGB">
      <feDropShadow dx="4" dy="4" stdDeviation="0" flood-color="#050308" flood-opacity="1"/>
      <feDropShadow dx="-1.2" dy="0" stdDeviation="0" flood-color="#00f0ff" flood-opacity="0.9"/>
      <feDropShadow dx="1.2" dy="0" stdDeviation="0" flood-color="#ff2e97" flood-opacity="0.9"/>
    </filter>
    <pattern id="punk-dots" width="7" height="7" patternUnits="userSpaceOnUse">
      <circle cx="1.5" cy="1.5" r="1.1" fill="#050308" opacity="0.36"/>
    </pattern>
  </defs>

  <path d="M10 23L24 9L48 14L71 7L88 24L80 47L88 72L66 87L42 82L19 89L7 68L14 47L10 23Z" fill="#050308"/>
  <path d="M14 24L26 13L48 18L70 12L83 26L76 47L83 69L64 81L42 76L22 82L12 66L19 47L14 24Z" fill="url(#punk-hot)" filter="url(#punk-pop)"/>
  <path d="M19 28L30 20L49 24L68 18L76 29L71 47L77 65L62 73L43 69L27 74L19 63L24 47L19 28Z" fill="#080411" stroke="#050308" stroke-width="4" stroke-linejoin="round"/>

  <path d="M13 58L83 33" stroke="#f5ff4d" stroke-width="5" stroke-linecap="square" opacity="0.92"/>
  <path d="M17 63L87 38" stroke="#00f0ff" stroke-width="3" stroke-linecap="square" opacity="0.75"/>
  <path d="M17 29L81 67" stroke="#ff2e97" stroke-width="3" stroke-linecap="square" opacity="0.65"/>
  <path d="M20 28L76 28L70 35L23 36L20 28Z" fill="url(#punk-dots)" opacity="0.8"/>

  <g filter="url(#punk-pop)">
    <path d="M23 66V29H49C57 29 62 33.7 62 40.8C62 46.1 59.1 50 53.8 51.7L66 66H49.8L40.2 53.7H37.3V66H23Z" fill="#fff7ff"/>
    <path d="M37.3 43.9H47.2C50.1 43.9 51.8 42.7 51.8 40.5C51.8 38.2 50.1 37 47.2 37H37.3V43.9Z" fill="#080411"/>
    <path d="M23 66V29H49C57 29 62 33.7 62 40.8C62 46.1 59.1 50 53.8 51.7L66 66H49.8L40.2 53.7H37.3V66H23Z" stroke="#050308" stroke-width="4" stroke-linejoin="round"/>
  </g>

  <g filter="url(#punk-pop)">
    <path d="M66 26C78.2 26 86 34.6 86 47.5C86 60.4 78.2 69 66 69C54 69 46 60.4 46 47.5C46 34.6 54 26 66 26Z" fill="#050308"/>
    <path d="M66 35C72.3 35 76.2 39.8 76.2 47.5C76.2 55.2 72.3 60 66 60C59.8 60 55.8 55.2 55.8 47.5C55.8 39.8 59.8 35 66 35Z" fill="#f5ff4d"/>
    <path d="M55 48H78M57 55H74M59 40H76" stroke="#050308" stroke-width="3" stroke-linecap="square"/>
  </g>

  <path d="M30 15L34 5L38 15L47 18L38 21L34 31L30 21L21 18L30 15Z" fill="#f5ff4d" stroke="#050308" stroke-width="3" stroke-linejoin="round"/>
  <path d="M74 72L87 74L76 80L72 91L68 79L56 75L69 72L74 61L74 72Z" fill="#00f0ff" stroke="#050308" stroke-width="3" stroke-linejoin="round"/>
  <path d="M9 41H23M73 20H87M11 72H28" stroke="#fff7ff" stroke-width="3" stroke-linecap="square"/>
</svg>
