<svg width="96" height="96" viewBox="0 0 96 96" fill="none" xmlns="http://www.w3.org/2000/svg" role="img" aria-label="RetroOasis">
  <defs>
    <linearGradient id="ro-frame" x1="14" y1="13" x2="82" y2="83" gradientUnits="userSpaceOnUse">
      <stop stop-color="#f5ff4d"/>
      <stop offset="0.38" stop-color="#ff2e97"/>
      <stop offset="1" stop-color="#00f0ff"/>
    </linearGradient>
    <linearGradient id="ro-sun" x1="31" y1="25" x2="70" y2="70" gradientUnits="userSpaceOnUse">
      <stop stop-color="#f5ff4d"/>
      <stop offset="0.5" stop-color="#ff2e97"/>
      <stop offset="1" stop-color="#7c3cff"/>
    </linearGradient>
    <filter id="ro-pop" x="-28%" y="-28%" width="156%" height="156%" color-interpolation-filters="sRGB">
      <feDropShadow dx="0" dy="0" stdDeviation="1.6" flood-color="#ff2e97" flood-opacity="0.9"/>
      <feDropShadow dx="0" dy="0" stdDeviation="2.2" flood-color="#00f0ff" flood-opacity="0.45"/>
    </filter>
    <clipPath id="ro-o-clip">
      <circle cx="63" cy="50" r="17"/>
    </clipPath>
  </defs>

  <path d="M12 20L20 12H76L84 20V76L76 84H20L12 76V20Z" fill="#07030f"/>
  <path d="M12 20L20 12H76L84 20V76L76 84H20L12 76V20Z" stroke="#05030d" stroke-width="6" stroke-linejoin="round"/>
  <path d="M16 21.5L21.5 16H74.5L80 21.5V74.5L74.5 80H21.5L16 74.5V21.5Z" stroke="url(#ro-frame)" stroke-width="3.4" stroke-linejoin="round"/>
  <path d="M20 68L68 20" stroke="#00f0ff" stroke-opacity="0.2" stroke-width="9" stroke-linecap="square"/>

  <g filter="url(#ro-pop)">
    <circle cx="63" cy="50" r="21" fill="#05030d"/>
    <circle cx="63" cy="50" r="17" fill="url(#ro-sun)"/>
    <g clip-path="url(#ro-o-clip)">
      <path d="M44 47H82M44 53H82M46 59H80M50 65H76" stroke="#05030d" stroke-opacity="0.8" stroke-width="3"/>
      <path d="M61 31C64 38 64.2 47.2 61.6 57.6C60.5 62.1 58.8 66.3 56.5 70.4" stroke="#05030d" stroke-width="4" stroke-linecap="round"/>
      <path d="M62 38C68 34.6 73.4 34.4 78 37.3C72.7 40.2 67.5 40.3 62 38Z" fill="#05030d"/>
      <path d="M61 42C68.1 42.1 73.7 44.4 78.2 49C71 50.1 65.1 47.6 61 42Z" fill="#05030d"/>
    </g>
  </g>

  <g filter="url(#ro-pop)">
    <path d="M25 67V30H47.2C54.7 30 59.6 34.7 59.6 41.6C59.6 48.1 55.1 52.4 48 53.2L60.4 67H47.8L37.3 54.2H35.8V67H25ZM35.8 45.8H45.8C48.7 45.8 50.6 44.2 50.6 41.8C50.6 39.4 48.7 37.9 45.8 37.9H35.8V45.8Z" fill="#fff7ff"/>
    <path d="M25 67V30H47.2C54.7 30 59.6 34.7 59.6 41.6C59.6 48.1 55.1 52.4 48 53.2L60.4 67H47.8L37.3 54.2H35.8V67H25Z" stroke="#05030d" stroke-width="3.6" stroke-linejoin="round"/>
    <path d="M52 66C58.6 68.8 67.1 68.1 73 63.2" stroke="#00f0ff" stroke-width="5" stroke-linecap="round"/>
    <path d="M27 30H47.2C54.7 30 59.6 34.7 59.6 41.6" stroke="#ff2e97" stroke-width="2.4" stroke-linecap="round" stroke-linejoin="round"/>
  </g>

  <path d="M20 26H37" stroke="#f5ff4d" stroke-opacity="0.8" stroke-width="2" stroke-linecap="round"/>
  <path d="M59 76H75" stroke="#00f0ff" stroke-opacity="0.72" stroke-width="2" stroke-linecap="round"/>
</svg>
